<?xml version="1.0" encoding="UTF-8" standalone="no"?>
<!-- Created with Inkscape (http://www.inkscape.org/) -->

<svg
   width="210mm"
   height="297mm"
   viewBox="0 0 210 297"
   version="1.1"
   id="svg1"
   inkscape:version="1.4.3 (0d15f75, 2025-12-25)"
   sodipodi:docname="sticker.svg"
   xmlns:inkscape="http://www.inkscape.org/namespaces/inkscape"
   xmlns:sodipodi="http://sodipodi.sourceforge.net/DTD/sodipodi-0.dtd"
   xmlns:xlink="http://www.w3.org/1999/xlink"
   xmlns="http://www.w3.org/2000/svg"
   xmlns:svg="http://www.w3.org/2000/svg">
  <sodipodi:namedview
     id="namedview1"
     pagecolor="#ffffff"
     bordercolor="#000000"
     borderopacity="0.25"
     inkscape:showpageshadow="2"
     inkscape:pageopacity="0.0"
     inkscape:pagecheckerboard="0"
     inkscape:deskcolor="#d1d1d1"
     inkscape:document-units="mm"
     showguides="true"
     inkscape:zoom="1.2205308"
     inkscape:cx="270.37417"
     inkscape:cy="528.86826"
     inkscape:window-width="1920"
     inkscape:window-height="1009"
     inkscape:window-x="-8"
     inkscape:window-y="-8"
     inkscape:window-maximized="1"
     inkscape:current-layer="g168" />
  <defs
     id="defs1">
    <inkscape:path-effect
       effect="bspline"
       id="path-effect184"
       is_visible="true"
       lpeversion="1.3"
       weight="33.333333"
       steps="2"
       helper_size="0"
       apply_no_weight="true"
       apply_with_weight="true"
       only_selected="false"
       uniform="false" />
    <inkscape:path-effect
       effect="bspline"
       id="path-effect182"
       is_visible="true"
       lpeversion="1.3"
       weight="33.333333"
       steps="2"
       helper_size="0"
       apply_no_weight="true"
       apply_with_weight="true"
       only_selected="false"
       uniform="false" />
    <inkscape:path-effect
       effect="bspline"
       id="path-effect180"
       is_visible="true"
       lpeversion="1.3"
       weight="33.333333"
       steps="2"
       helper_size="0"
       apply_no_weight="true"
       apply_with_weight="true"
       only_selected="false"
       uniform="false" />
    <inkscape:path-effect
       effect="bspline"
       id="path-effect178"
       is_visible="true"
       lpeversion="1.3"
       weight="33.333333"
       steps="2"
       helper_size="0"
       apply_no_weight="true"
       apply_with_weight="true"
       only_selected="false"
       uniform="false" />
    <inkscape:path-effect
       effect="bspline"
       id="path-effect176"
       is_visible="true"
       lpeversion="1.3"
       weight="33.333333"
       steps="2"
       helper_size="0"
       apply_no_weight="true"
       apply_with_weight="true"
       only_selected="false"
       uniform="false" />
    <inkscape:path-effect
       effect="bspline"
       id="path-effect174"
       is_visible="true"
       lpeversion="1.3"
       weight="33.333333"
       steps="2"
       helper_size="0"
       apply_no_weight="true"
       apply_with_weight="true"
       only_selected="false"
       uniform="false" />
    <inkscape:path-effect
       effect="bspline"
       id="path-effect172"
       is_visible="true"
       lpeversion="1.3"
       weight="33.333333"
       steps="2"
       helper_size="0"
       apply_no_weight="true"
       apply_with_weight="true"
       only_selected="false"
       uniform="false" />
    <inkscape:path-effect
       effect="bspline"
       id="path-effect170"
       is_visible="true"
       lpeversion="1.3"
       weight="33.333333"
       steps="2"
       helper_size="0"
       apply_no_weight="true"
       apply_with_weight="true"
       only_selected="false"
       uniform="false" />
    <linearGradient
       id="linearGradient118"
       inkscape:collect="always">
      <stop
         style="stop-color:#e3dbdb;stop-opacity:1;"
         offset="0"
         id="stop118" />
      <stop
         style="stop-color:#f6ac50;stop-opacity:1;"
         offset="1"
         id="stop119" />
    </linearGradient>
    <linearGradient
       id="swatch112"
       inkscape:swatch="solid">
      <stop
         style="stop-color:#d4ff2a;stop-opacity:1;"
         offset="0"
         id="stop112" />
    </linearGradient>
    <linearGradient
       id="linearGradient105"
       inkscape:collect="always">
      <stop
         style="stop-color:#44aa00;stop-opacity:1;"
         offset="0"
         id="stop105" />
      <stop
         style="stop-color:#136200;stop-opacity:1;"
         offset="1"
         id="stop106" />
    </linearGradient>
    <linearGradient
       id="linearGradient25"
       inkscape:collect="always">
      <stop
         style="stop-color:#abc837;stop-opacity:1;"
         offset="0"
         id="stop25" />
      <stop
         style="stop-color:#c9d600;stop-opacity:0.6398049;"
         offset="1"
         id="stop26" />
    </linearGradient>
    <inkscape:path-effect
       effect="bspline"
       id="path-effect19"
       is_visible="true"
       lpeversion="1.3"
       weight="33.333333"
       steps="2"
       helper_size="0"
       apply_no_weight="true"
       apply_with_weight="true"
       only_selected="false"
       uniform="false" />
    <inkscape:path-effect
       effect="bspline"
       id="path-effect18"
       is_visible="true"
       lpeversion="1.3"
       weight="33.333333"
       steps="2"
       helper_size="0"
       apply_no_weight="true"
       apply_with_weight="true"
       only_selected="false"
       uniform="false" />
    <inkscape:path-effect
       effect="bspline"
       id="path-effect17"
       is_visible="true"
       lpeversion="1.3"
       weight="33.333333"
       steps="2"
       helper_size="0"
       apply_no_weight="true"
       apply_with_weight="true"
       only_selected="false"
       uniform="false" />
    <inkscape:path-effect
       effect="bspline"
       id="path-effect16"
       is_visible="true"
       lpeversion="1.3"
       weight="33.333333"
       steps="2"
       helper_size="0"
       apply_no_weight="true"
       apply_with_weight="true"
       only_selected="false"
       uniform="false" />
    <inkscape:path-effect
       effect="bspline"
       id="path-effect15"
       is_visible="true"
       lpeversion="1.3"
       weight="33.333333"
       steps="2"
       helper_size="0"
       apply_no_weight="true"
       apply_with_weight="true"
       only_selected="false"
       uniform="false" />
    <inkscape:path-effect
       effect="bspline"
       id="path-effect14"
       is_visible="true"
       lpeversion="1.3"
       weight="33.333333"
       steps="2"
       helper_size="0"
       apply_no_weight="true"
       apply_with_weight="true"
       only_selected="false"
       uniform="false" />
    <inkscape:path-effect
       effect="spiro"
       id="path-effect11"
       is_visible="true"
       lpeversion="1" />
    <inkscape:path-effect
       effect="bspline"
       id="path-effect10"
       is_visible="true"
       lpeversion="1.3"
       weight="33.333333"
       steps="2"
       helper_size="0"
       apply_no_weight="true"
       apply_with_weight="true"
       only_selected="false"
       uniform="false" />
    <inkscape:path-effect
       effect="bspline"
       id="path-effect3"
       is_visible="true"
       lpeversion="1.3"
       weight="33.333333"
       steps="2"
       helper_size="0"
       apply_no_weight="true"
       apply_with_weight="true"
       only_selected="false"
       uniform="false" />
    <inkscape:path-effect
       effect="bspline"
       id="path-effect16-1"
       is_visible="true"
       lpeversion="1.3"
       weight="33.333333"
       steps="2"
       helper_size="0"
       apply_no_weight="true"
       apply_with_weight="true"
       only_selected="false"
       uniform="false" />
    <inkscape:path-effect
       effect="bspline"
       id="path-effect19-2"
       is_visible="true"
       lpeversion="1.3"
       weight="33.333333"
       steps="2"
       helper_size="0"
       apply_no_weight="true"
       apply_with_weight="true"
       only_selected="false"
       uniform="false" />
    <linearGradient
       inkscape:collect="always"
       xlink:href="#linearGradient25"
       id="linearGradient26"
       x1="75.669281"
       y1="103.10853"
       x2="152.78239"
       y2="103.10853"
       gradientUnits="userSpaceOnUse" />
    <linearGradient
       inkscape:collect="always"
       xlink:href="#linearGradient105"
       id="linearGradient106"
       x1="72.339771"
       y1="124.5732"
       x2="152.65433"
       y2="124.5732"
       gradientUnits="userSpaceOnUse" />
    <linearGradient
       inkscape:collect="always"
       xlink:href="#linearGradient118"
       id="linearGradient119"
       x1="74.625522"
       y1="100.41108"
       x2="101.50423"
       y2="100.41108"
       gradientUnits="userSpaceOnUse" />
  </defs>
  <g
     inkscape:groupmode="layer"
     id="g160"
     inkscape:label="Шар 2" />
  <g
     inkscape:groupmode="layer"
     id="g161"
     inkscape:label="Layer 1" />
  <g
     inkscape:groupmode="layer"
     id="g162"
     inkscape:label="Layer 3" />
  <g
     inkscape:groupmode="layer"
     id="g163"
     inkscape:label="Layer 2" />
  <g
     inkscape:label="Шар 1"
     inkscape:groupmode="layer"
     id="g165" />
  <g
     inkscape:groupmode="layer"
     id="g167"
     inkscape:label="Layer 4" />
  <g
     inkscape:groupmode="layer"
     id="g168"
     inkscape:label="Layer 5">
    <g
       id="path218"
       style="opacity:1;stroke:#000000;stroke-opacity:1;stroke-width:0.36897539;stroke-dasharray:none;stroke-linejoin:round;stroke-linecap:round;fill:#ffffff;fill-opacity:1"
       transform="matrix(1.5039563,0,0,1.3675869,-52.780433,-51.531642)">
      <path
         id="path311"
         style="baseline-shift:baseline;display:inline;overflow:visible;fill:#ffffff;fill-opacity:1;stroke:#000000;stroke-width:0.36897539;stroke-linecap:round;stroke-linejoin:round;stroke-dasharray:none;stroke-opacity:1;enable-background:accumulate;stop-color:#000000;stop-opacity:1"
         d="m 103.60957,85.462594 -3.4e-4,3.78e-4 c -1.40625,0.05859 -2.32308,0.812528 -3.23605,1.361073 -0.912979,0.548544 -1.743549,0.921992 -2.177762,0.921992 -0.434214,0 -1.204698,-0.363976 -2.076395,-0.87287 -0.435849,-0.254447 -0.891977,-0.530349 -1.431451,-0.742128 -0.539474,-0.211778 -1.229848,-0.380357 -1.984309,-0.162105 -1.508908,0.436498 -1.997947,1.615285 -2.564655,2.482201 -0.566708,0.866916 -1.162272,1.482805 -1.238346,1.511841 -0.07607,0.02903 -0.698476,-0.04829 -1.519414,-0.343858 -0.410469,-0.147785 -0.846021,-0.318542 -1.384721,-0.409984 -0.538701,-0.09144 -1.370573,-0.07724 -2.003895,0.498027 -0.633385,0.575329 -0.756455,1.215412 -0.843889,1.816401 -0.08743,0.60099 -0.08182,1.224432 -0.03299,1.859099 0.0772,1.003488 0.330094,1.920887 0.597526,2.779581 -0.06539,0.08978 -0.09709,0.137372 -0.163899,0.228231 -1.515329,1.738796 -1.746683,4.965217 -1.121159,7.422067 0.12894,0.50642 0.569985,0.87639 0.921887,1.30062 0.01181,0.46868 0.027,0.93724 0.08384,1.36523 0.09467,0.71268 0.191449,1.28193 0.67793,1.87912 0.222617,0.27328 0.6406,0.52881 1.114992,0.61517 0.03046,0.0921 0.02745,0.16013 0.08418,0.26753 0.145707,0.27585 0.463954,0.63876 0.916047,0.79125 0.574625,0.19384 0.91207,0.10597 1.185431,-0.0234 0.298428,0.35105 0.696295,0.55727 1.031153,0.62688 0.417132,0.0867 0.705008,-0.0665 1.029436,-0.1485 0.03969,0.12307 0.01377,0.20587 0.109266,0.34952 0.237864,0.35779 0.761919,0.64548 1.154507,0.67979 0.30393,0.0266 0.316298,-0.0751 0.478295,-0.11525 0.03883,0.19853 0.142785,0.3792 0.296874,0.59173 -0.03904,0.0667 -0.158842,0.13573 -0.185546,0.19347 -0.04276,0.0925 -0.04318,0.13919 -0.07009,0.2169 -0.246342,-0.0913 -0.505558,-0.23548 -1.078227,-0.16022 -0.303459,0.0399 -0.688057,0.20495 -0.945253,0.45495 -0.257196,0.24999 -0.383972,0.52337 -0.459054,0.74818 -0.0407,0.12186 -0.02445,0.10748 -0.04673,0.19535 -0.277786,-0.0854 -0.558368,-0.20193 -1.025656,-0.26564 -0.26473,-0.0361 -0.569841,-0.0475 -0.93357,0.082 -0.363729,0.12953 -0.753676,0.47047 -0.923606,0.83584 -0.02074,0.0446 -0.005,0.0667 -0.02165,0.1092 -0.224272,-0.0973 -0.540514,-0.24068 -1.050738,-0.0877 -0.560453,0.1681 -0.911134,0.69518 -1.015692,0.99001 -0.104557,0.29483 -0.114087,0.488 -0.126789,0.68356 -0.021,0.32334 0.03797,0.80033 0.101363,1.27378 -0.170597,0.31418 -0.443149,0.5709 -0.515405,0.90008 -0.310532,1.41474 -0.310066,3.43573 -0.316459,7.08423 5.85e-4,0.01 0.0013,0.0194 0.0021,0.0291 -9.74e-4,0.0162 -0.0017,0.0325 -0.0021,0.0487 -0.0011,0.66674 -0.01849,1.42663 0,2.26984 0.03737,1.69097 0.05516,3.7706 0.07422,5.87883 -0.333363,2.36957 -1.68797,6.39181 -2.728553,9.93372 -0.367773,1.25182 -0.462119,2.1024 -0.265606,3.00781 0.09826,0.45271 0.356405,1.07517 0.902303,1.33009 0.644345,0.30089 1.677676,0.11626 2.051765,0.068 0.422403,5.09127 0.736566,10.7204 3.848689,14.82385 1.844929,2.31204 4.62108,3.53842 7.740351,4.24419 0.127699,1.18391 -0.410208,2.66154 -1.45516,3.75183 -1.128591,1.17757 -3.049867,1.94504 -4.335929,3.74239 -0.642999,0.89864 -1.054905,2.08497 -0.69133,3.31237 0.363576,1.2274 1.519125,2.1695 3.072157,2.58611 1.574093,0.42226 3.606997,0.42441 5.644715,0.29096 0.601633,1.0251 1.539096,1.9344 3.056694,2.38849 3.423757,1.02444 8.904897,0.70989 12.031277,-0.11903 0.78158,-0.20722 1.43956,-0.4611 2.00973,-0.8672 0.57016,-0.40611 1.01492,-0.99852 1.24007,-1.62105 0.45029,-1.24505 0.272,-2.41648 0.17386,-3.9434 -0.19635,-3.05499 -0.38216,-7.71693 0.33398,-10.79865 0.0342,-0.1473 0.077,-0.28603 0.11545,-0.42964 1.03413,-0.40963 2.0628,-0.83599 3.03711,-1.36749 5.47899,-2.98891 9.6498,-7.89034 12.67965,-13.76754 3.02986,-5.87717 4.91615,-12.68306 5.85741,-16.14848 0.32195,-1.18531 0.54242,-1.96437 0.6415,-2.6375 0.11966,-0.40673 0.12,-0.87396 0.0223,-1.20237 -0.13102,-0.44052 -0.32288,-0.72148 -0.51953,-1.01948 -0.39957,-0.60551 -1.01368,-1.44005 -1.8613,-2.13834 -0.84763,-0.69829 -2.13523,-1.36629 -3.52915,-0.88308 -1.39392,0.4832 -2.10673,1.5648 -2.81273,2.45727 -0.353,0.44623 -0.67629,0.86545 -0.93735,1.16004 -0.11587,0.13077 -0.0914,0.10335 -0.16974,0.17004 -0.071,-0.0627 -0.08,-0.0602 -0.17971,-0.1621 -0.46107,-0.47139 -1.13644,-1.34486 -2.38495,-1.70909 -1.08098,-0.31532 -1.99462,-0.11485 -2.73439,0.0487 0.0384,-0.1218 0.0569,-0.1901 0.0976,-0.32232 0.30676,-0.99754 0.72135,-2.25792 0.35185,-3.66795 -0.36949,-1.41 -1.36749,-2.2261 -2.05887,-2.85931 -0.60916,-0.55789 -0.87167,-0.97343 -0.92086,-0.98887 0.0459,-0.10381 0.27764,-0.68078 0.72191,-1.40377 0.49863,-0.81145 1.2087,-1.86772 1.10331,-3.30255 -0.10812,-1.47209 -0.95187,-2.41557 -1.53316,-3.30859 -0.58129,-0.89301 -0.95498,-1.6369 -0.92773,-2.34391 0.0272,-0.70697 0.57828,-1.98673 1.21877,-3.30292 0.64048,-1.31619 1.44177,-2.65744 1.25002,-4.32619 -0.19176,-1.66868 -1.41756,-2.622504 -2.39663,-3.404188 -0.97906,-0.781685 -1.85976,-1.480951 -2.25369,-2.201068 -0.39393,-0.720116 -0.55381,-1.945554 -0.67965,-3.234531 -0.12585,-1.288978 -0.10179,-2.716652 -1.23044,-3.890507 -1.12867,-1.173872 -2.60374,-1.130066 -3.84595,-1.129063 -1.24221,10e-4 -2.44075,0.03393 -3.10343,-0.156058 -0.66268,-0.189989 -1.26056,-0.677861 -1.97263,-1.279454 -0.71206,-0.601594 -1.63086,-1.449145 -3.03711,-1.390546 z"
         sodipodi:nodetypes="ccsssssssssssscssccscsccscsccccccsscscscssscscccccssscscsssscssssscccsscsssssscccccsscssscssssssssscc" />
      <path
         id="path300"
         style="baseline-shift:baseline;display:inline;overflow:visible;fill:#ffffff;fill-opacity:1;stroke:#000000;stroke-width:0.368975;stroke-linecap:round;stroke-linejoin:round;stroke-dasharray:none;stroke-opacity:1;enable-background:accumulate;stop-color:#000000;stop-opacity:1"
         d="m 103.66661,86.845583 c -1.5162,0.06318 -3.54168,2.283821 -5.471536,2.283821 -1.929854,0 -3.763858,-2.220632 -5.107663,-1.831894 -1.343805,0.388737 -2.19749,3.386819 -3.693391,3.957767 -1.495901,0.570947 -3.633901,-1.285309 -4.472341,-0.523722 -0.838386,0.761538 -0.376831,4.141024 0.232963,5.648338 0.0131,0.03237 0.02625,0.06417 0.03952,0.09484 -0.216101,0.317971 -0.874574,1.195823 -0.977895,1.34747 -0.181778,0.535194 -0.36297,0.723254 -0.513,1.270007 -0.04722,0.190039 -0.203704,0.950266 -0.251861,1.139266 0.06224,0.88547 0.105131,2.40328 0.317833,3.23869 0.158017,0.62062 0.397881,0.95514 0.94697,1.32782 0.0071,0.54411 0.03229,1.07062 0.08899,1.49748 0.156238,1.17621 0.535687,1.57752 0.961402,1.24469 0.425716,-0.33282 0.832076,-1.34829 0.84011,-1.01948 0.008,0.3288 -0.399148,2.04416 0.0615,2.19955 0.460683,0.1554 1.789359,-1.24947 2.107662,-1.41246 0.318303,-0.16299 -0.373855,0.91598 -0.410262,1.48388 -0.03641,0.56791 0.582955,0.62505 1.242469,0.32988 0.659515,-0.29516 1.359426,-0.9426 1.393312,-0.62461 0.03389,0.31799 -0.598428,1.60136 -0.14397,1.64107 0.454458,0.0397 1.995571,-1.1642 2.191158,-0.93031 0.195586,0.23389 -0.870823,1.78422 -0.578971,1.98606 0.291851,0.20183 1.863022,-0.9995 2.416561,-1.15286 0.55354,-0.15336 -0.03369,0.83507 -0.19173,1.39697 -0.158045,0.56191 0.113125,0.69728 0.756271,0.40053 0.419062,-0.19336 0.995977,-0.57015 1.332493,-0.76026 0.03898,0.0531 0.0659,0.10532 0.08109,0.15719 -0.369358,0.38819 -1.20443,1.08248 -1.944451,1.31006 -0.961088,0.29556 -1.761419,-0.19644 -2.130341,-0.0185 -0.368923,0.17783 -0.306371,1.02536 -0.587905,1.31611 -0.281535,0.29075 -0.907238,0.0247 -1.336617,-0.12507 -0.42938,-0.14979 -0.662388,-0.1834 -0.779292,0.16664 -0.116905,0.35005 -0.117595,1.08386 -0.608521,1.22844 -0.490926,0.14458 -1.472112,-0.30003 -1.962662,-0.36691 -0.49055,-0.0669 -0.490473,0.24384 -0.384492,0.51579 0.105981,0.27195 0.318027,0.50508 0.424006,0.85473 0.02318,0.0765 0.04112,0.15847 0.0512,0.23919 -0.284318,0.11551 -0.541318,0.21467 -0.773795,0.30267 -0.38993,-0.22915 -0.864755,-0.59714 -1.185087,-0.81392 -0.459243,-0.31079 -0.600685,-0.31075 -0.63601,0.23314 -0.01958,0.30142 -0.0064,0.77006 0.110297,1.34482 -0.285023,0.22704 -0.441793,0.52348 -0.554233,1.03573 -0.238881,1.08831 -0.278126,3.15003 -0.284503,6.7895 0.004,0.0255 0.0026,0.0518 0,0.0778 -0.0011,0.68868 -0.01885,1.43336 -0.001,2.23772 0.02047,0.92628 0.03641,1.93205 0.04982,2.99647 0.01649,1.30972 0.02911,2.70824 0.04123,4.15691 -1.190583,3.55929 -2.295539,6.93787 -2.781125,9.00567 -0.563297,2.39872 -0.293157,3.03367 0.495476,2.89256 0.642481,-0.11495 1.628929,-0.74525 2.411064,-1.22277 0.0051,0.25197 0.0106,0.50267 0.01615,0.75195 0.0046,0.52637 4.91e-4,1.05314 -0.0031,1.57948 -1.03e-4,0.0153 -2.6e-4,0.0299 -3.43e-4,0.0453 0.02571,0.39245 0.0482,0.78596 0.06941,1.17894 0.06152,0.95421 0.118448,1.90879 0.166992,2.8646 0.0079,0.20621 0.01281,0.32206 0.01581,0.39562 0.0073,0.0602 0.01435,0.12036 0.0213,0.18062 0.0242,0.20971 0.04427,0.42016 0.06838,0.62991 0.01662,0.14452 0.03771,0.28831 0.05532,0.43265 l 0.0065,0.0446 c 0.111302,0.6527 0.207464,1.31069 0.308213,1.96679 0.09156,0.58797 0.201419,1.16912 0.303745,1.7533 0.0776,0.0852 0.155665,0.16738 0.234337,0.24675 0.487569,1.68005 1.163649,3.13326 2.103196,4.31069 1.777304,2.22729 4.539445,3.46681 7.92143,4.06508 0.04729,0.14598 0.0888,0.29358 0.121636,0.44248 0.404396,1.83397 -0.460582,3.87052 -1.84034,5.31015 -1.379759,1.43964 -3.274205,2.28224 -4.209483,3.58935 -0.935278,1.30712 -0.911516,3.07861 1.613561,3.75598 1.447345,0.38826 3.784154,0.41141 6.009277,0.21803 0.156967,0.98578 0.953129,1.94104 2.728902,2.47238 2.87235,0.85945 8.52921,0.59938 11.28015,-0.12999 2.75095,-0.72936 2.59612,-1.92781 2.39835,-5.00483 -0.19776,-3.07702 -0.42673,-7.79007 0.36628,-11.20259 0.0893,-0.3844 0.19168,-0.75227 0.29928,-1.10299 1.22292,-0.44901 2.40904,-0.97793 3.53877,-1.59422 5.17969,-2.82563 9.17653,-7.49023 12.11305,-13.18638 2.93653,-5.69615 4.81282,-12.42352 5.75088,-15.87716 0.34521,-1.27093 0.56337,-2.09851 0.62399,-2.59443 0.18233,-0.30658 0.0476,-0.61843 -0.29756,-1.14153 -0.70138,-1.06287 -2.27207,-2.99821 -3.78239,-2.47465 -1.51033,0.52356 -2.9601,3.50596 -4.04696,3.96608 -1.08687,0.46013 -1.81064,-1.6019 -3.279,-2.03027 -1.46837,-0.42833 -3.68129,0.77733 -4.00779,0.0948 -0.3265,-0.68225 1.23356,-3.25246 0.77207,-5.01352 -0.46149,-1.76107 -2.94438,-2.71306 -3.03058,-4.09758 -0.0862,-1.38453 1.96069,-2.99404 1.83484,-4.70745 -0.12585,-1.71341 -2.55636,-3.42704 -2.46466,-5.80666 0.0917,-2.37962 2.70581,-5.42541 2.47703,-7.41637 -0.22879,-1.99095 -3.30011,-2.926795 -4.48917,-5.100437 -1.18906,-2.173641 -0.49565,-5.584707 -1.69328,-6.830302 -1.19763,-1.245594 -4.28616,-0.325438 -6.33398,-0.912546 -2.04782,-0.587107 -3.05476,-2.681412 -4.57096,-2.618232 z" />
    </g>
  </g>
  <g
     id="g159"
     style="display:inline">
    <g
       inkscape:groupmode="layer"
       id="layer7"
       inkscape:label="Шар 2">
      <path
         style="fill:url(#linearGradient26);stroke-width:0.264583"
         d="m 77.44551,83.15294 c -0.89166,-1.942359 -1.566291,-6.297441 -0.340418,-7.278932 1.225874,-0.981492 4.352094,1.410637 6.539233,0.674831 2.18714,-0.735805 3.434964,-4.599535 5.399725,-5.100519 1.964762,-0.500984 4.646275,2.360675 7.467893,2.360675 2.821618,0 5.783057,-2.861719 7.999887,-2.943137 2.21682,-0.08142 3.68891,2.617413 6.683,3.374046 2.99409,0.756632 7.50987,-0.428915 9.26091,1.176339 1.75104,1.605254 0.73712,6.001119 2.47564,8.802389 1.73851,2.801271 6.22924,4.007611 6.56375,6.573446 0.3345,2.565836 -3.48734,6.490927 -3.62144,9.557652 -0.1341,3.06673 3.41952,5.27495 3.60353,7.4831 0.18401,2.20816 -2.80893,4.28272 -2.68288,6.06703 0.12604,1.7843 3.75623,3.01113 4.43097,5.2807 0.67473,2.26956 -1.60612,5.58164 -1.12875,6.46088 0.47738,0.87925 3.71282,-0.67431 5.8597,-0.12226 2.14688,0.55206 3.20496,3.20972 4.79405,2.61673 1.58909,-0.59298 3.70903,-4.43642 5.91725,-5.11116 2.20823,-0.67474 4.50451,1.81937 5.52999,3.18914 1.02549,1.36976 0.78014,1.6151 -2.04147,2.96457 -2.82162,1.34947 -8.21928,3.80295 -12.69701,5.52043 -4.47773,1.71748 -8.03528,2.69888 -12.02231,-1.2882 -3.98703,-3.98708 -8.4033,-12.94229 -10.91818,-20.30294 C 112.0037,105.7471 111.39033,99.981355 106.02573,95.414678 100.66113,90.848001 90.628861,87.508204 85.037341,86.066532 79.44582,84.624859 78.337169,85.095299 77.44551,83.15294 Z"
         id="path10"
         inkscape:original-d="m 77.228495,85.565748 c -0.674645,-4.355167 -1.349276,-8.710249 -2.023934,-13.065502 3.126405,2.39227 6.252625,4.784399 9.379031,7.17667 1.247873,-3.863882 2.495696,-7.727612 3.743544,-11.591415 2.681676,2.861835 5.363189,5.723494 8.044865,8.585329 2.96156,-2.861835 5.922999,-5.723555 8.884499,-8.585329 1.47215,2.698938 2.94424,5.39777 4.41636,8.096655 4.51606,-1.185619 9.03184,-2.371166 13.54789,-3.556784 -1.01397,4.396126 -2.02788,8.791991 -3.04186,13.188119 4.491,1.206413 8.98173,2.412753 13.47274,3.619167 -3.822,3.925255 -7.64384,7.850346 -11.46576,11.775522 3.55372,2.20828 7.10734,4.4165 10.66095,6.62471 -3.18559,2.2081 -6.17853,4.28266 -9.55686,6.62436 3.63042,1.22691 7.26061,2.45374 10.89103,3.68065 -2.28095,3.31222 -4.5618,6.6243 -6.8427,9.93645 3.23565,-1.55366 6.47109,-3.10722 9.70672,-4.66088 1.05813,2.65777 2.11621,5.31543 3.17432,7.97315 2.12007,-3.84369 4.24001,-7.68713 6.36008,-11.53083 2.29638,2.49422 4.59266,4.98833 6.88899,7.4825 -0.24536,0.24536 -0.49071,0.4907 -0.73606,0.73606 -5.39788,2.45358 -10.79554,4.90706 -16.19331,7.36059 -3.55769,0.98143 -7.11524,1.96283 -10.67286,2.94424 -4.41644,-8.95557 -8.83271,-17.91078 -13.24907,-26.86617 -0.6134,-5.76591 -1.22677,-11.531655 -1.84015,-17.297397 C 100.66113,90.848002 90.628861,87.508205 80.554516,84.1544 c -1.108696,0.470459 -2.217347,0.940899 -3.326021,1.411348 z"
         inkscape:path-effect="#path-effect10"
         sodipodi:nodetypes="cccccccccccccccccccccccccc"
         transform="matrix(1.0286356,0,0,1.0611769,-4.3750116,-7.9639991)" />
    </g>
    <g
       inkscape:groupmode="layer"
       id="layer10"
       inkscape:label="Layer 1">
      <path
         style="fill:url(#linearGradient119);stroke-width:0.264583"
         d="m 74.714965,88.260066 c -0.06242,1.32273 -0.187267,3.968215 0.04771,5.576785 0.234975,1.60857 0.805986,2.157421 1.446244,1.702255 0.640257,-0.455166 1.251252,-1.844287 1.263335,-1.394617 0.01208,0.44967 -0.600204,2.795977 0.09264,3.008493 0.692847,0.212517 2.690801,-1.708766 3.169515,-1.931663 0.478714,-0.222897 -0.561832,1.252583 -0.616588,2.029241 -0.05476,0.776659 0.876305,0.854414 1.868185,0.450747 0.991881,-0.403667 2.044503,-1.2887 2.095466,-0.853822 0.05096,0.434877 -0.89974,2.189611 -0.216255,2.243908 0.683486,0.0543 3.001082,-1.591854 3.295236,-1.27199 0.294153,0.319865 -1.309722,2.439887 -0.870791,2.715917 0.438932,0.27603 2.801886,-1.366646 3.634385,-1.576375 0.832499,-0.209729 -0.05036,1.141985 -0.288058,1.910445 -0.237692,0.76845 0.169823,0.95354 1.137085,0.54771 0.967263,-0.40584 2.49416,-1.40255 2.414151,-1.16044 -0.08001,0.24211 -1.766908,1.723 -3.212343,2.12721 -1.445435,0.4042 -2.649238,-0.26833 -3.204082,-0.0251 -0.554844,0.24319 -0.460672,1.40208 -0.884087,1.7997 -0.423415,0.39763 -1.364378,0.0339 -2.010146,-0.17091 -0.645767,-0.20485 -0.99628,-0.25086 -1.172099,0.22786 -0.175819,0.47872 -0.176919,1.48209 -0.91525,1.67982 -0.738331,0.19772 -2.213836,-0.41023 -2.951602,-0.50169 -0.737766,-0.0915 -0.737766,0.33356 -0.578375,0.70547 0.159392,0.37191 0.478161,0.69068 0.637548,1.16884 0.159387,0.47817 0.159387,1.11571 -0.425045,1.00944 -0.584432,-0.10626 -1.75325,-0.95631 -2.443933,-1.38135 -0.690682,-0.42503 -0.903195,-0.42503 -0.956323,0.31879 -0.05313,0.74383 0.05313,2.23143 0.948077,3.97489 0.894947,1.74346 2.60331,3.77214 7.070367,2.44878 4.467057,-1.32337 11.692552,-5.99869 15.358512,-10.25199 3.665964,-4.253299 3.772134,-8.075576 1.700014,-10.836836 -2.07212,-2.76126 -6.322369,-4.46136 -10.913988,-5.219878 -4.591619,-0.758517 -9.524324,-0.575426 -11.990728,-0.483879 -2.466403,0.09155 -2.466357,0.09155 -2.528779,1.414279 z"
         id="path15"
         inkscape:original-d="m 74.777387,86.937335 c -0.124844,2.645461 -0.249689,5.290946 -0.374531,7.936378 0.594792,0.571708 1.165803,1.120559 1.784393,1.715141 0.661925,-1.504914 1.27292,-2.894035 1.909398,-4.341094 -0.612311,2.346399 -1.224598,4.692706 -1.836898,7.039059 1.997994,-1.92132 3.995948,-3.842603 5.99398,-5.76396 -1.040604,1.475563 -2.08115,2.951043 -3.121752,4.426602 0.93109,0.07776 1.862151,0.155513 2.793222,0.233269 1.05269,-0.88509 2.105312,-1.770123 3.158002,-2.655213 -0.950764,1.754845 -1.901468,3.509579 -2.85223,5.264423 2.317733,-1.646251 4.63533,-3.292402 6.953063,-4.93865 -1.729426,2.285978 -3.333303,4.406 -5.188177,6.8578 2.73274,-1.89974 5.095693,-3.542416 7.643611,-5.313673 -0.88292,1.351799 -1.765786,2.703513 -2.64871,4.055323 0.407541,0.1851 0.815056,0.37019 1.222595,0.55529 1.526984,-0.99677 3.053881,-1.99348 4.580866,-2.990242 -1.687,1.480982 -3.3739,2.961872 -5.060901,4.442852 -1.203867,-0.67257 -2.40767,-1.3451 -3.611535,-2.01766 0.09418,1.15894 0.188347,2.31783 0.282523,3.47678 -0.941007,-0.3637 -1.881968,-0.72739 -2.822973,-1.09109 -0.350532,-0.046 -0.701045,-0.092 -1.051582,-0.13801 -0.0011,1.00344 -0.0022,2.00681 -0.0033,3.01024 -1.47556,-0.60798 -2.951066,-1.21593 -4.426599,-1.82389 0,0.42504 0,0.85006 0,1.2751 0.318783,0.31878 0.63755,0.63755 0.956326,0.95632 0,0.63756 0,1.2751 0,1.91265 -1.168866,-0.85008 -2.337684,-1.70013 -3.506526,-2.5502 -0.212521,0 -0.425034,0 -0.63755,0 0.106259,1.48765 0.212518,2.97525 0.318775,4.46285 1.912683,1.80644 3.506525,3.93156 5.100402,6.05673 7.225712,-4.67546 14.451208,-9.35078 21.676701,-14.0261 0.31878,-3.82538 0.31878,-7.650607 0.31878,-11.475908 -4.25042,-1.700168 -8.50067,-3.400266 -12.751003,-5.100402 -4.932904,0.183099 -9.865609,0.36619 -14.798416,0.549285 z"
         inkscape:path-effect="#path-effect15"
         sodipodi:nodetypes="ccccccccccccccccccccccccccccccccccc" />
    </g>
    <g
       inkscape:groupmode="layer"
       id="layer14"
       inkscape:label="Layer 3">
      <path
         style="fill:#338000;fill-opacity:1;stroke-width:0.264583"
         d="m 73.690176,130.21962 c -0.69068,0.15939 -0.69068,0.15939 -0.69068,0.15939 -3.294009,6.26924 -6.588019,12.53849 -7.91624,16.15128 -1.328222,3.6128 -0.690684,4.56911 1.168865,4.35658 1.859549,-0.21254 4.940985,-1.59387 6.853642,-2.28455 1.912657,-0.69068 2.656451,-0.69068 3.134617,-3.77223 0.478165,-3.08155 0.690678,-9.24442 0.106243,-12.16652 -0.584435,-2.9221 -1.965768,-2.60333 -2.656447,-2.44395 z"
         id="path17"
         inkscape:original-d="m 72.999496,130.37901 c 0,0 0,0 0,0 0,0 -6.588017,12.53849 -9.882026,18.80773 0.637561,0.95635 1.275098,1.91266 1.912649,2.86898 3.081554,-1.38138 6.162987,-2.76272 9.244478,-4.14408 0.743823,0 1.487617,0 2.231427,0 0.212521,-6.1631 0.425032,-12.32597 0.637551,-18.48895 -1.381387,0.31878 -2.762719,0.63755 -4.144079,0.95632 z"
         inkscape:path-effect="#path-effect17"
         transform="matrix(0.6378262,0,0,0.90801129,28.416544,11.969808)" />
    </g>
    <g
       inkscape:groupmode="layer"
       id="layer13"
       inkscape:label="Layer 2">
      <path
         style="fill:#338000;fill-opacity:1;stroke-width:0.264583"
         d="m 96.429468,173.20114 c -1.753261,1.2751 1.115712,3.61278 2.125155,6.16301 1.009444,2.55023 0.159397,5.31289 -1.593891,7.22555 -1.753287,1.91266 -4.409693,2.97523 -5.525403,4.72851 -1.115709,1.75329 -0.69068,4.19721 3.245558,5.26401 3.936239,1.0668 11.688333,0.7438 15.458203,-0.16153 3.76987,-0.90533 3.55735,-2.39293 3.28634,-6.2123 -0.27102,-3.81937 -0.58442,-9.66945 -1.00677,-13.12584 -0.42235,-3.4564 -0.95363,-4.51896 -4.4071,-4.94399 -3.45346,-0.42504 -9.82883,-0.21253 -11.582092,1.06258 z"
         id="path16-8"
         inkscape:transform-center-x="9.0764175"
         inkscape:transform-center-y="4.1510802"
         inkscape:original-d="m 91.807227,172.13855 c 2.868978,2.33769 5.737953,4.67537 8.606923,7.01305 -0.850078,2.76278 -1.700128,5.52544 -2.550195,8.28816 -2.656512,1.0626 -5.312918,2.12516 -7.969377,3.18775 0.42504,2.44399 0.850069,4.88791 1.275099,7.33182 7.438241,-0.53129 15.194943,-0.7438 22.951803,-0.95632 -0.21252,-1.48765 -0.42503,-2.97525 -0.63755,-4.46285 -0.10626,-6.1631 -0.53129,-12.0072 -0.95632,-17.85141 -0.5313,-1.0626 -1.06258,-2.12516 -1.59388,-3.18775 -6.37563,0.21252 -12.751,0.42504 -19.126503,0.63755 z"
         inkscape:path-effect="#path-effect16-1"
         transform="matrix(1.0083144,-0.03495379,-0.1606301,0.99732253,20.89549,0.4328174)" />
      <path
         style="fill:#44a000;fill-opacity:1;stroke-width:0.264583"
         d="m 97.938524,172.42173 c -3.262317,2.05451 -0.393344,4.39219 0.616099,6.94242 1.009444,2.55023 0.159397,5.31289 -1.593891,7.22555 -1.753287,1.91266 -4.409693,2.97523 -5.525403,4.72851 -1.115709,1.75329 -0.69068,4.19721 3.245558,5.26401 3.936239,1.0668 11.688333,0.7438 15.458203,-0.16153 3.76987,-0.90533 3.55735,-2.39293 3.28634,-6.2123 -0.27102,-3.81937 -0.58442,-9.66945 0.50231,-13.90527 1.08672,-4.23581 3.57345,-6.85712 0.11998,-7.28217 -3.45347,-0.42504 -12.84688,1.34626 -16.109196,3.40078 z"
         id="path16"
         inkscape:original-d="m 91.807227,172.13855 c 2.868978,2.33769 5.737953,4.67537 8.606923,7.01305 -0.850078,2.76278 -1.700128,5.52544 -2.550195,8.28816 -2.656512,1.0626 -5.312918,2.12516 -7.969377,3.18775 0.42504,2.44399 0.850069,4.88791 1.275099,7.33182 7.438241,-0.53129 15.194943,-0.7438 22.951803,-0.95632 -0.21252,-1.48765 -0.42503,-2.97525 -0.63755,-4.46285 -0.10626,-6.1631 -0.53129,-12.0072 -0.95632,-17.85141 2.48685,-2.62144 4.97358,-5.24275 7.46044,-7.86421 -9.3938,1.77137 -18.78721,3.54267 -28.180823,5.31401 z"
         inkscape:path-effect="#path-effect16"
         sodipodi:nodetypes="cccccccccc"
         transform="matrix(1.0974651,0,0,1.1017767,-5.9803899,-19.730869)" />
    </g>
    <g
       inkscape:label="Шар 1"
       inkscape:groupmode="layer"
       id="layer1">
      <path
         id="path3"
         style="fill:url(#linearGradient106);stroke-width:0.264583"
         d="m 98.049312,73.259094 c -2.234949,0.05565 -4.431398,0.316505 -6.470923,0.715202 -7.180958,1.403773 -11.144762,2.9896 -16.143717,6.309176 -0.15623,0.247453 -1.383072,1.732418 -1.557528,1.965254 -0.273387,0.731924 -0.54589,0.989112 -0.771529,1.736845 -0.07101,0.259894 -0.306361,1.299567 -0.378788,1.558045 0.09361,1.210964 0.158112,3.286699 0.478007,4.429187 0.429375,1.533482 1.259904,1.789488 4.510836,3.384289 3.250932,1.594802 9.507245,4.170921 12.696899,5.643067 3.189653,1.472141 3.312379,1.840201 0.513664,3.302121 -2.798714,1.46191 -8.518783,4.0176 -11.876795,5.2648 -3.358012,1.24721 -4.216333,1.12437 -4.645711,2.90318 -0.359267,1.48835 -0.41829,4.30793 -0.427881,9.28522 0.006,0.0349 0.0039,0.0708 0,0.10645 -0.0017,0.94182 -0.02818,1.96025 -0.0016,3.06028 0.169921,6.9926 0.13588,17.29685 0.367936,26.12967 0.232177,8.83743 1.104241,16.19354 5.019849,20.65559 3.915609,4.46204 11.010283,6.02532 19.556429,6.17947 8.54616,0.15416 18.11485,-1.19535 25.90488,-5.05964 7.79003,-3.8643 13.80109,-10.24355 18.21749,-18.03353 4.41641,-7.78998 7.23828,-16.99026 8.64909,-21.7134 1.41081,-4.72314 1.4105,-4.9688 -0.92036,-3.80338 -2.33085,1.16543 -6.99227,3.74171 -11.83804,5.70456 -4.84576,1.96285 -9.87564,3.31236 -12.63592,0.24546 -2.76027,-3.0669 -3.25101,-10.55019 -3.74396,-21.28656 -0.49296,-10.73637 -0.98824,-24.725617 -6.56549,-31.836812 -4.18293,-5.333396 -11.23203,-7.011495 -17.936888,-6.844544 z m -25.251688,9.468673 c -0.0027,0.0018 -0.0056,0.0034 -0.0083,0.0052 -0.0014,0.0028 -0.0027,0.0059 -0.0041,0.0088 -0.0014,0.0026 -0.0027,0.0051 -0.0041,0.0078 0.0055,-0.0073 0.0109,-0.01445 0.01654,-0.0217 z" />
      <path
         id="path27"
         style="opacity:0.907;mix-blend-mode:lighten;fill:#d4ff2a;fill-opacity:1;stroke-width:0.223976"
         d="m 81.15732,117.55355 v 5.1e-4 5.2e-4 l 5.17e-4,5.2e-4 5.17e-4,5.2e-4 5.16e-4,5.1e-4 5.17e-4,5.2e-4 c -2.483039,-1.6e-4 -4.904791,1.55728 -6.930843,4.45657 -9.67e-4,0.0315 -0.0028,0.063 -0.0047,0.0946 -0.0063,0.0625 -0.01989,0.12214 -0.03462,0.1819 5.82e-4,0.0334 0.0012,0.0673 0.0016,0.10077 4.02e-4,0.11757 -0.0078,0.23467 -0.01395,0.35192 0.0022,0.0174 0.0067,0.035 0.0067,0.0527 7.4e-5,0.0168 -0.0047,0.0334 -0.0062,0.0501 -0.006,0.0693 -0.0034,0.1388 -0.0072,0.20826 -0.0065,0.0984 -0.0091,0.19757 -0.01809,0.29559 -0.0065,0.0329 8.08e-4,0.0661 -0.001,0.0992 -0.0016,0.0309 -0.0085,0.0612 -0.01033,0.092 -5.68e-4,0.0101 -0.001,0.0338 -0.0015,0.0563 -4.2e-5,0.0365 -7.1e-4,0.073 -5.17e-4,0.10955 0.0025,0.11082 0.0089,0.22171 0.01499,0.33228 0.01384,0.10945 0.01284,0.21901 0.0083,0.32918 -0.0064,0.0956 -0.0064,0.19156 -0.0098,0.28732 0.0021,0.0938 4.82e-4,0.18738 -0.0041,0.28112 -0.01112,0.11081 -0.01782,0.2219 -0.02429,0.33332 -0.0013,0.0164 -0.0029,0.0332 -0.0041,0.0496 -4.65e-4,0.0243 -0.0011,0.0482 -0.0021,0.0723 -0.007,0.1154 -0.0044,0.0589 -0.0078,0.17053 -0.0033,0.0409 -0.0049,0.0822 -0.0057,0.12351 -8.18e-4,0.0437 -7.28e-4,0.0877 -0.0026,0.13126 -0.0012,0.0343 -0.0027,0.0681 -0.0052,0.10232 -0.0013,0.0274 -0.003,0.0554 -0.0047,0.0827 v 5.2e-4 c 0.0051,0.15409 0.0036,0.30777 -0.0062,0.46147 -0.007,0.13655 -0.01414,0.27254 -0.01912,0.40928 -0.0019,0.11687 0.0029,0.23463 0.0072,0.3514 0.0049,0.17094 0.0059,0.34161 0.0072,0.51263 -1.73e-4,0.002 1.36e-4,0.005 0,0.007 0.01804,0.13876 0.03304,0.27835 0.04806,0.41807 0.0412,0.49998 0.05919,0.99318 0.06925,1.49551 0.003,0.15133 0.01278,0.30236 0.01137,0.45372 -0.0015,0.15582 -0.01345,0.31106 -0.02015,0.46664 -0.007,0.28598 -0.01646,0.5716 -0.02739,0.85731 3.2e-5,9.6e-4 -3.1e-5,0.002 0,0.003 0.05494,1.24023 0.07719,2.48171 0.08113,3.72381 0.0031,0.22871 -0.05923,0.66473 -0.05943,0.89348 -3.13e-4,0.46238 0.0562,0.71793 0.05271,1.18029 -0.0054,0.71002 -0.0038,1.41955 -0.0057,2.12959 -3.79e-4,1.29263 -0.0095,2.58485 -0.02429,3.87728 0.0062,0.1395 0.01262,0.2792 0.01912,0.41858 0.05918,1.43394 0.08521,2.86938 0.09405,4.30516 0.01356,0.84221 0.0062,1.68523 0,2.5275 -1.54e-4,0.021 1.24e-4,0.041 0,0.062 0.03866,0.53671 0.07196,1.07486 0.103869,1.6123 0.09252,1.30497 0.17814,2.60992 0.251148,3.91708 0.01189,0.28201 0.01925,0.44097 0.02377,0.54157 0.01098,0.0823 0.02158,0.16408 0.03204,0.24649 0.0364,0.2868 0.06657,0.57511 0.102836,0.86196 0.02499,0.19764 0.05671,0.3943 0.0832,0.5917 0.003,0.0191 0.0064,0.0389 0.0098,0.061 0.167394,0.89262 0.312016,1.79248 0.463538,2.68976 0.137706,0.8041 0.302925,1.59886 0.456819,2.39778 1.65122,1.64762 3.468018,2.50476 5.309754,2.50476 6.62084,-2.9e-4 11.436089,-9.73681 11.435994,-23.10918 9.3e-5,-13.3717 -4.814565,-25.31593 -11.434961,-25.31732 z m -8.55555,33.62482 c -0.0034,0.002 -0.0069,0.004 -0.01033,0.006 0.0042,0.0341 0.0087,0.0682 0.01292,0.10232 0.0031,0.001 0.0062,0.002 0.0093,0.003 -0.0039,-0.0372 -0.008,-0.0745 -0.01189,-0.11162 z m 0.976168,3.88658 c -0.0021,7.2e-4 -0.004,0.001 -0.0062,0.001 0.0032,0.017 0.0061,0.0347 0.0093,0.0517 -0.0023,-0.036 -0.0032,-0.0518 -0.0031,-0.0527 z m 0.274402,3.93723 c 0.02014,0.17624 0.0413,0.35259 0.06253,0.52865 0.04386,0.23544 0.08725,0.47077 0.131775,0.7059 -0.06075,-0.41254 -0.125605,-0.82411 -0.194303,-1.23455 z m 0.867647,2.86391 c 0.0118,0.12299 0.02376,0.24632 0.03307,0.37 0.02212,0.0282 0.04394,0.0563 0.06615,0.0842 -0.03082,-0.12113 -0.06528,-0.28428 -0.09922,-0.45423 z" />
    </g>
    <g
       inkscape:groupmode="layer"
       id="layer15"
       inkscape:label="Layer 4">
      <path
         style="fill:#338000;fill-opacity:1;stroke-width:0.264583"
         d="m 80.437583,85.750501 c -1.062584,-1.381359 0.531291,-2.443943 2.390834,-3.240886 1.859542,-0.796943 3.984668,-1.328224 5.259773,-0.371874 1.275104,0.95635 1.700129,3.400242 1.700125,5.047256 -5e-6,1.647014 -0.42503,2.497064 -2.497105,2.072013 -2.072076,-0.425051 -5.791043,-2.12515 -6.853627,-3.506509 z"
         id="path19"
         inkscape:original-d="m 77.781123,85.431727 c 1.593876,-1.062585 3.187752,-2.125168 4.781626,-3.187753 2.12521,-0.531302 4.250336,-1.062583 6.375503,-1.593874 0.425043,2.443991 0.850067,4.887883 1.275101,7.331826 -0.425042,0.850086 -0.850069,1.700134 -1.275101,2.5502 -3.719118,-1.700167 -7.438085,-3.400266 -11.157129,-5.100399 z"
         inkscape:path-effect="#path-effect19" />
      <path
         style="fill:#e3dbdb;fill-opacity:1;stroke-width:0.264583"
         d="m 80.437583,85.750501 c -1.062584,-1.381359 0.531291,-2.443943 2.390834,-3.240886 1.859542,-0.796943 3.984668,-1.328224 5.259773,-0.371874 1.275104,0.95635 1.700129,3.400242 1.700125,5.047256 -5e-6,1.647014 -0.42503,2.497064 -2.497105,2.072013 -2.072076,-0.425051 -5.791043,-2.12515 -6.853627,-3.506509 z"
         id="path19-9"
         inkscape:original-d="m 77.781123,85.431727 c 1.593876,-1.062585 3.187752,-2.125168 4.781626,-3.187753 2.12521,-0.531302 4.250336,-1.062583 6.375503,-1.593874 0.425043,2.443991 0.850067,4.887883 1.275101,7.331826 -0.425042,0.850086 -0.850069,1.700134 -1.275101,2.5502 -3.719118,-1.700167 -7.438085,-3.400266 -11.157129,-5.100399 z"
         inkscape:path-effect="#path-effect19-2"
         transform="matrix(0.80231052,0,0,0.81072128,16.130251,16.589676)" />
      <circle
         style="fill:#280b0b;fill-opacity:1;stroke-width:0.264583"
         id="path21"
         cx="82.724747"
         cy="85.429649"
         r="1.4651523" />
    </g>
    <g
       inkscape:groupmode="layer"
       id="layer4"
       inkscape:label="Layer 5">
      <path
         style="fill:#338000;fill-opacity:1;stroke-width:0.264583"
         d="m 98.886174,128.13796 c -2.182007,1.1069 -2.728948,2.28506 -1.936113,5.3801 0.792835,3.09505 2.925381,8.10672 5.266799,10.50634 2.34142,2.39963 4.89157,2.18711 6.39893,-0.76202 1.50737,-2.94913 1.92568,-8.06929 1.75045,-11.9245 -0.17524,-3.85521 -0.91958,-5.11661 -3.10541,-5.25526 -2.18583,-0.13865 -6.19265,0.94844 -8.374656,2.05534 z"
         id="path18"
         inkscape:original-d="m 97.251122,128.06667 c -0.546953,1.17819 -1.093896,2.35635 -1.64086,3.53456 2.132632,5.01188 4.265178,10.02355 6.397768,15.03532 2.55025,-0.21253 5.1004,-0.42504 7.6506,-0.63756 0.46452,-5.68574 0.88284,-10.8059 1.39355,-17.05691 -0.86118,-1.45941 -1.60552,-2.72081 -2.34987,-3.98224 -3.62731,0.98413 -7.63413,2.07122 -11.451188,3.10683 z"
         inkscape:path-effect="#path-effect18"
         sodipodi:nodetypes="ccccccc"
         transform="matrix(1.5039563,0,0,1.3675869,-52.780433,-51.531642)" />
    </g>
  </g>
</svg>
